<?xml version="1.0" encoding="utf-8"?>
<svg width="800px" height="800px" viewBox="0 0 800 800" version="1.1" xmlns:xlink="http://www.w3.org/1999/xlink" xmlns="http://www.w3.org/2000/svg">
  <defs>
    <path d="M0 0L800 0L800 800L0 800L0 0Z" id="path_1" />
    <clipPath id="clip_1">
      <use xlink:href="#path_1" />
    </clipPath>
  </defs>
  <g id="download" clip-path="url(#clip_1)">
    <path d="M0 0L800 0L800 800L0 800L0 0Z" id="download" fill="#000000" fill-rule="evenodd" stroke="none" />
    <path d="M491.003 726.628C460.339 744.712 429.713 762.864 398.924 780.734C396.789 781.973 392.883 782.161 390.746 781.037C382.719 776.817 375.084 771.85 367.053 766.183C366.552 763.136 366.683 760.93 365.989 759.024C359.85 742.152 353.422 725.385 347.358 708.486C339.027 685.267 331.343 661.806 322.524 638.777C319.553 631.018 318.257 621.866 310.689 616.197C316.124 613.146 321.401 610.699 326.405 607.781C344.566 597.188 362.693 586.531 380.698 575.676C384.907 573.138 388.589 569.727 392.513 566.717C397.896 564.278 403.348 561.979 408.641 559.358C413.215 557.093 417.609 554.461 423.083 551.842C425.766 553.601 428.12 555.241 429.01 557.466C432.567 566.359 435.603 575.458 438.952 584.436C448.177 609.164 457.602 633.82 466.684 658.601C474.97 681.211 482.91 703.947 491.003 726.628L491.003 726.628Z" id="Shape" fill="#DD255E" stroke="none" />
    <path d="M250.726 483.75C255.337 486.572 259.948 489.393 264.249 492.928C246.315 504.136 228.801 514.819 211.047 525.085C169.822 548.923 128.461 572.524 87.2539 596.392C85.4249 597.451 84.569 600.19 83.2599 602.147C82.4572 601.745 81.6927 601.218 80.8461 600.96C66.092 596.461 64.3825 585.962 64.5565 571.935C65.3582 507.309 64.9266 442.668 65.5155 377.447C71.2289 380.001 76.2831 383.283 81.5145 386.253C95.8184 394.374 110.323 402.148 124.517 410.454C147.462 423.88 170.137 437.768 193.088 451.184C211.367 461.868 229.887 472.139 248.609 482.948C249.521 483.451 250.123 483.601 250.726 483.75L250.726 483.75Z" id="Shape" fill="#F42A69" stroke="none" />
    <path d="M312.576 66.5085C323.746 59.8054 334.869 53.0225 346.097 46.4187C361.128 37.5787 376.304 28.9849 391.279 20.0527C395.899 17.297 398.65 20.0759 402.012 23.4635C402.676 29.3312 403.465 34.2037 403.472 39.0773C403.557 97.7836 403.533 156.49 403.513 215.197C403.512 218.952 402.829 222.93 407.557 224.777C403.693 228.247 400.043 231.283 396.392 234.32C390.397 237.196 384.21 239.735 378.44 243.009C357.427 254.931 336.553 267.099 315.129 278.534C314.633 211.048 314.668 144.203 314.551 77.3577C314.544 73.7402 313.264 70.1249 312.576 66.5085L312.576 66.5085Z" id="Shape" fill="#D82557" stroke="none" />
    <path d="M491.499 726.571C482.91 703.947 474.97 681.211 466.684 658.601C457.602 633.82 448.177 609.164 438.952 584.436C435.603 575.458 432.567 566.359 429.01 557.466C428.12 555.24 425.766 553.601 423.525 551.678C442.393 540.211 461.797 528.72 481.258 517.326C488.703 512.967 496.279 508.828 504.423 505.09C508.99 516.578 512.893 527.576 516.873 538.548C526.593 565.345 536.33 592.137 546.098 618.917C550.979 632.299 556.128 645.586 560.796 659.04C563.378 666.483 565.217 674.183 567.391 681.768C567.391 681.768 567.341 681.614 566.953 681.622C565.834 682.431 565.103 683.231 564.373 684.031C545.296 695.287 526.226 706.555 507.138 717.793C502.119 720.748 497.044 723.61 491.499 726.571L491.499 726.571Z" id="Shape" fill="#E52762" stroke="none" />
    <path d="M567.905 681.723C565.217 674.183 563.378 666.483 560.796 659.04C556.128 645.586 550.979 632.299 546.098 618.917C536.33 592.137 526.593 565.345 516.873 538.548C512.893 527.576 508.99 516.578 504.943 505.021C515.272 498.041 525.672 491.568 536.162 485.246C541.526 482.014 547.052 479.053 552.536 475.952C566.211 484.005 579.836 492.029 593.735 501.023C596.447 509.726 598.626 517.551 601.367 525.174C610.906 551.712 620.873 578.099 630.193 604.712C634.25 616.296 637.131 628.292 640.546 640.101C616.503 653.96 592.461 667.819 567.905 681.723L567.905 681.723Z" id="Shape" fill="#EC2966" stroke="none" />
    <path d="M65.1384 309.001C65.074 283.1 65.0097 257.198 65.5511 230.649C66.8486 230.115 67.658 230.032 68.2154 230.368C91.2234 244.228 114.217 258.111 137.193 272.023C148.179 278.675 159.09 285.453 170.1 292.065C186.318 301.804 202.522 311.571 218.872 321.085C229.317 327.163 240.016 332.805 250.601 338.642C250.69 364.073 250.779 389.505 250.216 415.585C246.934 415.349 244.064 414.878 241.719 413.507C232.428 408.077 223.314 402.343 214.11 396.762C194.713 385.001 175.292 373.28 155.897 361.516C134.336 348.438 112.895 335.156 91.1882 322.326C82.8077 317.372 73.8391 313.413 65.1384 309.001L65.1384 309.001Z" id="Shape" fill="#D8245C" stroke="none" />
    <path d="M407.769 224.344C402.829 222.93 403.512 218.952 403.513 215.197C403.533 156.49 403.557 97.7836 403.472 39.0774C403.465 34.2037 402.676 29.3312 402.318 23.8013C414.689 30.1327 426.998 37.1125 439.295 44.1137C443.61 46.5709 447.896 49.0809 452.534 52.5333C452.414 57.4326 451.569 61.3644 451.559 65.2983C451.461 105.271 451.498 145.244 451.503 185.216C451.503 187.096 451.009 189.236 451.744 190.779C452.405 192.166 454.321 193.403 455.904 193.782C457.613 194.192 459.579 193.53 461.335 193.824C450.636 200.688 440.143 207.254 429.395 213.372C422.378 217.366 414.991 220.709 407.769 224.344L407.769 224.344Z" id="Shape" fill="#DF2660" stroke="none" />
    <path d="M467.564 275.401C456.241 269.061 444.917 262.722 433.541 255.53C449.503 245.109 465.436 235.398 481.55 225.999C521.35 202.785 561.279 179.792 601.022 156.482C605.784 153.689 609.72 149.487 614.039 145.938C626.106 152.824 638.173 159.71 650.37 167.594C649.158 170.623 648.287 173.455 646.403 174.556C631.268 183.405 615.848 191.767 600.693 200.582C562.028 223.072 523.505 245.806 484.788 268.204C479.447 271.294 473.325 273.035 467.564 275.401L467.564 275.401Z" id="Shape" fill="#DB2564" stroke="none" />
    <path d="M641.018 640.117C637.131 628.292 634.25 616.296 630.193 604.712C620.873 578.099 610.906 551.712 601.367 525.174C598.626 517.551 596.447 509.726 594.017 501.409C605.013 506.957 616.073 512.966 626.978 519.243C651.045 533.096 675.041 547.07 699.05 561.021C711.556 568.289 724.03 575.613 737.909 583.724C731.975 587.218 726.943 590.198 721.894 593.149C695.095 608.814 668.292 624.473 641.018 640.117L641.018 640.117Z" id="Shape" fill="#F32C7E" stroke="none" />
    <path d="M119.103 622.482C119.103 622.482 118.723 622.54 118.675 621.886C120.18 619.591 121.458 617.49 123.326 616.376C146.736 602.415 170.168 588.491 193.719 574.769C225.972 555.976 258.292 537.297 290.701 518.774C294.223 516.761 298.516 516.097 302.452 514.808C312.505 520.5 322.559 526.193 332.754 532.706C325.514 538.338 318.318 543.465 310.72 547.905C283.437 563.849 256.036 579.594 228.642 595.349C208.786 606.769 188.7 617.802 169.088 629.625C163.393 633.058 155.446 634.498 153.543 642.693C143.526 636.974 133.509 631.255 123.018 624.723C121.397 623.434 120.25 622.958 119.103 622.482L119.103 622.482Z" id="Shape" fill="#DD2665" stroke="none" />
    <path d="M302.183 514.376C298.516 516.098 294.223 516.761 290.701 518.774C258.292 537.298 225.972 555.976 193.719 574.769C170.168 588.491 146.736 602.415 123.326 616.376C121.458 617.49 120.18 619.591 118.573 621.724C107.008 615.758 95.4975 609.302 83.6234 602.497C84.569 600.19 85.4249 597.451 87.2538 596.392C128.461 572.524 169.822 548.923 211.047 525.085C228.801 514.819 246.315 504.136 264.483 493.376C277.323 500.054 289.618 506.999 302.183 514.376L302.183 514.376Z" id="Shape" fill="#E9286B" stroke="none" />
    <path d="M250.653 102.088C260.351 96.3013 270.049 90.5142 280.483 85.1295C282.012 88.3614 283.47 91.1856 283.493 94.0213C283.679 117.273 283.573 140.526 283.603 163.779C283.66 208.169 283.747 252.558 283.821 296.947C274.162 302.747 264.503 308.547 253.918 314.49C252.374 314.646 251.757 314.659 251.135 314.011C251.102 306.72 251.075 300.088 251.073 292.798C251.071 283.17 251.043 274.201 251.049 264.575C251.052 255.894 251.021 247.871 251.033 239.189C251.043 229.56 251.01 220.591 251.015 210.962C251.07 196.245 251.15 182.187 251.089 168.13C250.994 146.116 250.803 124.102 250.653 102.088L250.653 102.088Z" id="Shape" fill="#C31E62" stroke="none" />
    <path d="M284.338 296.857C283.747 252.558 283.66 208.169 283.603 163.779C283.574 140.526 283.679 117.273 283.493 94.0213C283.47 91.1856 282.012 88.3614 280.975 85.033C291.009 78.5826 301.287 72.6311 312.071 66.594C313.264 70.1249 314.544 73.7402 314.551 77.3577C314.668 144.203 314.633 211.048 314.629 278.543C304.704 285.05 294.78 290.908 284.338 296.857L284.338 296.857Z" id="Shape" fill="#CE215D" stroke="none" />
    <path d="M461.433 193.335C459.579 193.53 457.613 194.192 455.904 193.782C454.321 193.403 452.405 192.166 451.744 190.779C451.009 189.236 451.503 187.096 451.503 185.216C451.498 145.244 451.461 105.271 451.559 65.2983C451.569 61.3644 452.414 57.4326 452.888 52.9123C470.529 62.507 488.153 72.6891 506.24 83.7627C507.114 87.6341 507.866 90.6121 507.882 93.5941C507.987 113.508 508.132 133.426 507.801 153.334C507.717 158.385 508.878 161.811 513.323 164.1C508.64 167.117 504.316 169.889 499.831 172.367C487.067 179.421 474.237 186.354 461.433 193.335L461.433 193.335Z" id="Shape" fill="#E9286B" stroke="none" />
    <path d="M65.0424 309.656C73.8391 313.413 82.8077 317.372 91.1882 322.326C112.895 335.156 134.336 348.438 155.897 361.516C175.292 373.28 194.713 385.001 214.11 396.762C223.314 402.343 232.428 408.077 241.719 413.507C244.064 414.878 246.934 415.349 250.079 416.233C250.687 427.557 250.778 438.882 250.219 450.856C246.33 450.272 242.814 449.498 239.902 447.73C224.931 438.641 210.214 429.13 195.223 420.074C160.983 399.391 126.702 378.777 92.2875 358.388C83.5259 353.197 74.2038 348.952 65.1392 344.273C65.075 332.952 65.0107 321.631 65.0424 309.656L65.0424 309.656Z" id="Shape" fill="#CE215D" stroke="none" />
    <path d="M251.047 293.457C251.075 300.088 251.102 306.72 251.157 314.432C251.21 315.793 251.236 316.073 251.261 316.353C251.132 320.076 251.003 323.799 250.213 328.136C246.556 327.679 243.284 327.067 240.613 325.458C229.423 318.716 218.5 311.531 207.321 304.769C168.859 281.506 130.394 258.247 91.7787 235.24C83.2118 230.135 74.029 226.065 65.1298 221.518C63.1043 212.524 66.2536 206.559 75.0314 203.151C79.5417 201.401 83.6055 198.5 88.4354 196.632C89.8584 198.187 90.5155 199.561 91.605 200.222C121.117 218.129 150.663 235.98 180.227 253.802C197.37 264.136 214.451 274.583 231.776 284.605C237.868 288.129 244.605 290.539 251.047 293.457L251.047 293.457Z" id="Shape" fill="#E02867" stroke="none" />
    <path d="M705.491 198.858C715.973 204.732 726.455 210.606 738.343 217.267C675.385 253.812 613.879 289.514 552.336 325.237C542.961 319.813 533.663 314.434 524.649 308.361C557.231 288.894 589.461 270.005 621.848 251.387C647.005 236.926 672.442 222.949 697.52 208.354C700.881 206.398 702.868 202.081 705.491 198.858L705.491 198.858Z" id="Shape" fill="#EC2B67" stroke="none" />
    <path d="M65.0418 344.927C74.2038 348.952 83.5259 353.197 92.2875 358.388C126.702 378.777 160.983 399.391 195.223 420.074C210.214 429.13 224.931 438.641 239.902 447.73C242.814 449.498 246.33 450.272 250.083 451.504C250.683 461.578 250.768 471.654 250.16 482.198C249.079 482.642 248.69 482.618 248.301 482.594C229.887 472.139 211.367 461.868 193.088 451.184C170.137 437.768 147.462 423.88 124.517 410.454C110.323 402.148 95.8184 394.374 81.5145 386.253C76.2831 383.283 71.2289 380.001 65.6105 376.792C65.0663 366.343 65.0053 355.962 65.0418 344.927L65.0418 344.927Z" id="Shape" fill="#C61E69" stroke="none" />
    <path d="M467.82 275.849C473.325 273.035 479.447 271.294 484.788 268.204C523.505 245.806 562.028 223.072 600.692 200.582C615.848 191.767 631.268 183.405 646.403 174.556C648.286 173.455 649.158 170.623 650.548 168.033C659.99 172.711 669.383 177.95 678.745 184.211C676.65 187.302 674.88 189.846 672.462 191.343C667.089 194.671 661.308 197.333 655.838 200.514C613.157 225.334 570.484 250.167 527.872 275.105C517.821 280.987 508.012 287.282 498.092 293.386C488.086 287.69 478.081 281.994 467.82 275.849L467.82 275.849Z" id="Shape" fill="#E02867" stroke="none" />
    <path d="M498.395 293.769C508.012 287.282 517.821 280.987 527.872 275.105C570.484 250.167 613.157 225.334 655.838 200.514C661.308 197.333 667.089 194.671 672.462 191.343C674.88 189.846 676.65 187.302 678.799 184.685C687.575 188.765 696.265 193.394 705.223 198.44C702.868 202.081 700.881 206.398 697.52 208.354C672.442 222.949 647.005 236.926 621.848 251.387C589.461 270.005 557.231 288.894 524.404 307.922C515.482 303.502 507.09 298.827 498.395 293.769L498.395 293.769Z" id="Shape" fill="#E62762" stroke="none" />
    <path d="M250.124 102.116C250.803 124.102 250.994 146.116 251.089 168.13C251.15 182.187 251.07 196.245 250.482 210.967C247.903 211.127 245.629 211.069 243.928 210.051C224.121 198.206 204.438 186.155 184.642 174.293C175.066 168.554 165.319 163.099 155.65 157.516C166.134 151.062 176.541 144.478 187.121 138.184C204.179 128.035 221.336 118.051 238.487 108.06C242.109 105.95 245.888 104.109 250.124 102.116L250.124 102.116Z" id="Shape" fill="#F32C7E" stroke="none" />
    <path d="M310.406 616.584C318.257 621.866 319.553 631.018 322.524 638.777C331.343 661.806 339.027 685.267 347.358 708.486C353.422 725.385 359.85 742.152 365.989 759.024C366.683 760.93 366.552 763.136 366.774 765.8C355.977 760.415 345.154 754.531 334.464 748.414C328.048 744.742 321.84 740.707 315.089 736.02C313.478 730.024 312.794 724.678 311.071 719.691C304.375 700.318 297.652 680.942 290.312 661.808C286.939 653.014 282.115 644.777 278.172 635.855C289.065 629.143 299.735 622.863 310.406 616.584L310.406 616.584Z" id="Shape" fill="#E9286B" stroke="none" />
    <path d="M277.949 636.287C282.115 644.777 286.939 653.014 290.312 661.808C297.652 680.942 304.375 700.318 311.071 719.691C312.794 724.678 313.478 730.024 314.642 735.802C289.941 722.203 265.231 708.016 240.537 693.804C230.024 687.754 219.543 681.649 209.313 675.024C217.933 669.828 226.294 665.186 234.641 660.521C249.082 652.451 263.514 644.366 277.949 636.287L277.949 636.287Z" id="Shape" fill="#F32C7E" stroke="none" />
    <path d="M153.839 643.037C155.446 634.498 163.393 633.058 169.088 629.625C188.7 617.802 208.786 606.769 228.642 595.349C256.036 579.594 283.437 563.849 310.72 547.905C318.318 543.465 325.514 538.338 333.091 533.019C340.013 536.337 346.737 540.163 353.577 544.765C351.424 547.147 349.261 548.934 346.868 550.325C338.971 554.915 330.936 559.268 323.053 563.88C296.786 579.249 270.602 594.76 244.309 610.083C222.663 622.699 200.847 635.023 179.294 647.794C177.141 649.07 176.293 652.549 174.84 655.006C167.939 651.131 161.037 647.256 153.839 643.037L153.839 643.037Z" id="Shape" fill="#D1236B" stroke="none" />
    <path d="M251.073 292.798C244.605 290.539 237.868 288.129 231.776 284.605C214.451 274.583 197.37 264.136 180.227 253.802C150.663 235.98 121.117 218.129 91.605 200.222C90.5155 199.561 89.8584 198.187 88.9444 196.653C95.3383 192.31 101.788 188.459 109.324 184.657C112.99 185.621 115.807 186.136 118.109 187.514C138.183 199.537 158.175 211.699 178.173 223.849C195.168 234.175 212.019 244.746 229.181 254.786C236.12 258.846 243.717 261.784 251.014 265.232C251.043 274.201 251.071 283.17 251.073 292.798L251.073 292.798Z" id="Shape" fill="#E62762" stroke="none" />
    <path d="M278.172 635.855C263.514 644.366 249.082 652.451 234.641 660.521C226.294 665.186 217.933 669.828 209.07 674.611C203.159 671.659 197.756 668.575 192.157 664.585C192.999 662.507 193.824 660.968 195.109 660.22C210.861 651.049 226.707 642.038 242.479 632.9C283.698 609.018 324.854 585.027 366.17 561.313C369.468 559.42 373.801 559.332 377.654 558.405C382.39 560.95 387.126 563.495 392.188 566.378C388.589 569.727 384.907 573.138 380.698 575.676C362.693 586.531 344.566 597.188 326.405 607.781C321.401 610.699 316.124 613.146 310.689 616.197C299.735 622.863 289.064 629.143 278.172 635.855L278.172 635.855Z" id="Shape" fill="#BB1B52" stroke="none" />
    <path d="M377.385 557.966C373.801 559.332 369.468 559.42 366.17 561.313C324.854 585.027 283.698 609.018 242.479 632.9C226.707 642.039 210.861 651.049 195.109 660.22C193.824 660.968 192.999 662.507 191.897 664.184C186.324 661.739 180.814 658.788 175.072 655.422C176.293 652.549 177.141 649.07 179.294 647.794C200.847 635.023 222.663 622.699 244.309 610.083C270.602 594.76 296.786 579.249 323.053 563.88C330.936 559.268 338.971 554.915 346.868 550.325C349.261 548.934 351.424 547.147 353.905 545.113C361.784 548.966 369.45 553.246 377.385 557.966L377.385 557.966Z" id="Shape" fill="#C61E69" stroke="none" />
    <path d="M613.789 145.553C609.72 149.487 605.784 153.689 601.022 156.482C561.279 179.792 521.35 202.785 481.55 225.999C465.436 235.398 449.503 245.109 433.279 255.126C426.291 251.781 419.512 247.987 413.085 243.561C423.013 237.593 432.66 232.382 442.151 226.901C490.084 199.218 538.003 171.51 585.829 143.644C589.419 141.552 592.245 138.151 595.427 135.359C601.464 138.629 607.502 141.899 613.789 145.553L613.789 145.553Z" id="Shape" fill="#CC214B" stroke="none" />
    <path d="M595.333 135.231C592.246 138.151 589.419 141.552 585.829 143.644C538.003 171.51 490.084 199.218 442.151 226.901C432.66 232.382 423.013 237.593 412.853 243.101C407.161 240.566 402.053 237.859 396.669 234.735C400.043 231.283 403.693 228.247 407.557 224.777C414.991 220.709 422.378 217.366 429.395 213.372C440.143 207.254 450.636 200.688 461.335 193.824C474.237 186.354 487.067 179.42 499.831 172.367C504.316 169.889 508.64 167.117 513.818 164.029C530.987 154.282 547.44 145.094 563.728 135.624C568.906 132.613 573.648 128.852 578.59 125.434C582.49 127.715 586.391 129.996 590.844 133.025C592.571 134.218 593.746 134.664 594.922 135.11C594.922 135.11 595.239 135.103 595.333 135.231L595.333 135.231Z" id="Shape" fill="#BE1C54" stroke="none" />
    <path d="M251.049 264.575C243.717 261.784 236.12 258.846 229.181 254.786C212.019 244.746 195.168 234.175 178.173 223.849C158.175 211.699 138.183 199.537 118.109 187.514C115.807 186.136 112.99 185.621 109.798 184.633C117.022 179.691 124.859 174.821 133.386 170.362C140.071 174.697 145.965 178.788 152.081 182.517C182.166 200.862 212.282 219.157 242.485 237.306C244.942 238.783 248.138 239.029 250.99 239.847C251.021 247.871 251.052 255.894 251.049 264.575L251.049 264.575Z" id="Shape" fill="#EC2966" stroke="none" />
    <path d="M578.469 124.958C573.648 128.852 568.906 132.613 563.728 135.624C547.44 145.094 530.987 154.282 514.104 163.65C508.878 161.811 507.717 158.385 507.801 153.334C508.132 133.426 507.988 113.508 507.882 93.5941C507.866 90.6121 507.114 87.634 506.613 84.0899C516.193 89.0101 525.875 94.4746 535.531 99.9841C549.813 108.133 564.077 116.314 578.469 124.958L578.469 124.958Z" id="Shape" fill="#F02974" stroke="none" />
    <path d="M251.033 239.189C248.138 239.029 244.942 238.783 242.485 237.306C212.282 219.157 182.166 200.862 152.081 182.517C145.965 178.788 140.071 174.697 133.892 170.236C140.715 165.642 147.719 161.584 155.187 157.521C165.319 163.099 175.066 168.554 184.642 174.293C204.438 186.155 224.121 198.206 243.928 210.051C245.629 211.069 247.903 211.127 250.444 211.626C251.01 220.591 251.043 229.56 251.033 239.189L251.033 239.189Z" id="Shape" fill="#F02974" stroke="none" />
    <path d="M65.0338 222.118C74.029 226.065 83.2118 230.135 91.7787 235.24C130.394 258.247 168.859 281.506 207.321 304.769C218.5 311.531 229.423 318.716 240.613 325.458C243.284 327.067 246.556 327.679 250.082 328.747C250.697 331.638 250.782 334.532 250.734 338.034C240.016 332.805 229.317 327.163 218.872 321.085C202.522 311.571 186.318 301.804 170.1 292.065C159.09 285.453 148.179 278.675 137.193 272.023C114.217 258.111 91.2234 244.227 68.2154 230.368C67.658 230.032 66.8486 230.115 65.6483 229.995C65.0725 227.564 65.0051 225.141 65.0338 222.118L65.0338 222.118Z" id="Shape" fill="#DD2665" stroke="none" />
    <path d="M119.332 622.898C120.25 622.958 121.397 623.434 122.646 624.41C121.685 624.377 120.623 623.846 119.332 622.898L119.332 622.898Z" id="Shape" fill="#E9286B" stroke="none" />
    <path d="M594.702 134.684C593.746 134.664 592.571 134.218 591.291 133.264C592.285 133.257 593.384 133.757 594.702 134.684L594.702 134.684Z" id="Shape" fill="#CC214B" stroke="none" />
    <path d="M564.81 684.072C565.103 683.231 565.834 682.431 567.024 681.661C566.738 682.498 565.992 683.306 564.81 684.072L564.81 684.072Z" id="Shape" fill="#EC2966" stroke="none" />
    <path d="M251.678 316.274C251.236 316.073 251.21 315.793 251.162 315.092C251.757 314.659 252.374 314.646 253.452 314.656C253.307 315.183 252.701 315.69 251.678 316.274L251.678 316.274Z" id="Shape" fill="#DD2665" stroke="none" />
    <path d="M248.609 483.115C248.69 482.575 249.079 482.615 250.044 482.846C250.62 483.038 250.773 483.713 250.749 484.07C250.123 484.182 249.521 483.938 248.609 483.115L248.609 483.115Z" id="Shape" fill="#DD2665" stroke="none" />
    <g id="FROZEN" fill="#E5E5E5" transform="translate(264.59402 342.2738)">
      <path d="M202.5 31.1Q209.7 31.1 216.25 33.9Q222.8 36.7 227.5 41.45Q232.2 46.2 235 52.75Q237.8 59.3 237.8 66.5Q237.8 76.1 233.1 84.25Q228.4 92.4 220.25 97.15Q212.1 101.9 202.5 101.9Q192.9 101.9 184.75 97.15Q176.6 92.4 171.85 84.25Q167.1 76.1 167.1 66.5Q167.1 56.9 171.85 48.75Q176.6 40.6 184.75 35.85Q192.9 31.1 202.5 31.1ZM78.7 31.5L6.5 31.5L6.5 101.5L23.8 101.5L23.8 48.8L72.7 48.8Q76.3 38.5 78.7 31.5ZM85.7 31.5L85.7 101.5L103.2 101.5L103.2 49L126 49L103.4 71.6L164.4 124.7L164.4 101.5L129.1 70.5L151 48.6L151.1 48.6L151.1 31.5L85.7 31.5ZM285.65 66.65Q300.7 43.3 308.3 31.5L241.6 31.5L258.9 48.8L275.8 48.8L241.8 101.5L263.2 101.5Q270.6 90 285.65 66.65ZM316.2 31.5L388.4 31.5Q386 38.5 382.4 48.8L333.5 48.8L333.5 76.9L340.8 84.2L370.1 84.2L364.1 101.5L333.7 101.5L316.2 84L316.2 31.5ZM464.5 31.5L414.7 31.5L392.3 59.2L392.3 84.1L410.2 101.5L410.3 101.5L410.3 65.5L423.7 49L446.5 49L446.5 101.5L464.5 101.5L464.5 31.5ZM215 79.05Q220.2 73.9 220.2 66.5Q220.2 59.1 215 53.95Q209.8 48.8 202.45 48.8Q195.1 48.8 189.9 53.95Q184.7 59.1 184.7 66.5Q184.7 73.9 189.9 79.05Q195.1 84.2 202.45 84.2Q209.8 84.2 215 79.05ZM63.6 75.1L69.6 57.9L30.1 57.9L30.1 75.1L63.6 75.1ZM339.8 57.9L379.3 57.9L373.3 75.1L339.8 75.1L339.8 57.9ZM308.3 84.2L281.8 84.2L270.9 101.5L308.3 101.5L308.3 84.2Z" />
    </g>
  </g>
</svg>